<svg width="80" height="81" viewBox="0 0 80 81" fill="none" xmlns="http://www.w3.org/2000/svg">
<path d="M40 46.7317C41.3132 46.7317 42.6136 46.473 43.8268 45.9705C45.0401 45.4679 46.1425 44.7314 47.0711 43.8028C47.9997 42.8742 48.7362 41.7718 49.2388 40.5585C49.7413 39.3453 50 38.0449 50 36.7317M40 46.7317C37.3478 46.7317 34.8043 45.6781 32.9289 43.8028C31.0536 41.9274 30 39.3839 30 36.7317M40 46.7317V56.7317M50 36.7317C50 35.4185 49.7413 34.1181 49.2388 32.9049C48.7362 31.6916 47.9997 30.5892 47.0711 29.6606C46.1425 28.732 45.0401 27.9954 43.8268 27.4929C42.6136 26.9904 41.3132 26.7317 40 26.7317M50 36.7317H60M40 26.7317C37.3478 26.7317 34.8043 27.7853 32.9289 29.6606C31.0536 31.536 30 34.0795 30 36.7317M40 26.7317V16.7317M30 36.7317H20M26.6667 23.3984L33.3333 30.065M46.6667 43.3984L53.3333 50.065M53.3333 23.3984L46.6667 30.065M33.3333 43.3984L26.6667 50.065M40 73.3984C40 73.3984 10 60.065 10 36.7317V16.7317L40 6.73169L70 16.7317V36.7317C70 60.065 40 73.3984 40 73.3984Z" stroke="black" strokeWidth="4"/>
</svg>
