<svg xmlns:xlink="http://www.w3.org/1999/xlink" xmlns="http://www.w3.org/2000/svg" class="css-ze2te4 css-qd6ojx" viewBox="0 0 80 76.64872597175875" width="110"  height="105" ><g transform="translate(-0.00000904363860851411, 0) scale(9.482942397561292)" class="css-1lmlii8" fill="#F8B500"><defs xmlns="http://www.w3.org/2000/svg"></defs><g xmlns="http://www.w3.org/2000/svg" fill="#F8B500"><path class="fil0" d="M4.0469 3.6506c0,0 -0.008,-1.6637 -0.0646,-1.3246 -0.0565,0.3392 -0.323,1.583 -0.323,1.583 -2.6667,-1.9753 -0.439,-2.5912 -0.1616,-3.909 0,0 2.2291,1.3569 0.5492,3.6506zm-1.577 1.8638c0.1131,0.9319 -0.3275,0.7466 -0.8413,1.1319 0,0 -0.3341,-1.002 0.6566,-1.163 0,0 -0.3777,0.4656 -0.2819,0.3862 0.0959,-0.0795 0.4666,-0.3551 0.4666,-0.3551zm-0.2697 -2.5481c-0.9525,0.4201 -0.8977,-0.1071 -1.4722,-0.5282 0,0 0.9558,-0.6773 1.4457,0.3221 0,0 -0.6157,-0.2508 -0.5006,-0.1747 0.1152,0.0762 0.5271,0.3808 0.5271,0.3808zm2.7403 2.3612c0.0252,1.401 0.6382,1.0363 1.4776,1.4999 0,0 0.2871,-1.5506 -1.2109,-1.584 0,0 0.6546,0.6104 0.4965,0.5127 -0.1582,-0.0976 -0.7632,-0.4286 -0.7632,-0.4286zm0.1011 -3.1874c-0.2999,-1.3687 0.3808,-1.1559 1.09,-1.8013 0,0 0.6385,1.4419 -0.811,1.8214 0,0 0.4954,-0.7455 0.3642,-0.6138 -0.1313,0.1317 -0.6432,0.5937 -0.6432,0.5937zm-1.2743 2.0508c-1.8511,1.2038 -0.6395,2.2657 -0.3994,3.8919 0,0 2.3076,-1.2184 0.7706,-3.6103 0,0 -0.1094,1.6602 -0.1452,1.3182 -0.0358,-0.3421 -0.226,-1.5998 -0.226,-1.5998zm-0.4762 -0.022c-1.269,1.8442 -1.764,0.8177 -3.2911,0.6952 0,0 0.9848,-2.3189 3.0101,-1.0424 0,0 -1.4105,0.2359 -1.1136,0.2452 0.2968,0.0094 1.3946,0.102 1.3946,0.102zm1.0375 0.0941c1.6045,2.0982 3.1897,-1.096 4.1076,-1.8599 -1.9655,-0.158 -2.6897,-0.7459 -4.0469,1.398 0,0 1.4963,-0.7275 1.2169,-0.5269 -0.2793,0.2004 -1.2776,0.9888 -1.2776,0.9888z" style="fill: {{COLOR}};" fill="#F8B500"></path></g></g></svg>