<?xml version="1.0" encoding="utf-8"?>
<!-- Generator: Adobe Illustrator 27.8.1, SVG Export Plug-In . SVG Version: 6.00 Build 0)  -->
<svg version="1.1" id="Layer_1" xmlns="http://www.w3.org/2000/svg" xmlns:xlink="http://www.w3.org/1999/xlink" x="0px" y="0px"
	 viewBox="0 0 444.08 444.08" style="enable-background:new 0 0 444.08 444.08;" xml:space="preserve">
<style type="text/css">
	.st0{fill:#FFFFFF;stroke:#000000;stroke-miterlimit:10;}
	.st1{fill:#FFFFFF;}
	.st2{fill:#BA2027;}
	.st3{fill-rule:evenodd;clip-rule:evenodd;fill:#FFFFFF;}
	.st4{fill:#B42027;}
	.st5{fill:#FF0000;}
	.st6{fill:#010101;}
	.st7{fill:#FD2D56;}
	.st8{fill:none;}
	.st9{fill:#6DEFED;}
	.st10{fill:#FC2C54;}
	.st11{fill:#25F4EE;}
	.st12{fill:#030303;}
	.st13{fill:#040404;}
	.st14{fill:#020202;}
	.st15{fill-rule:evenodd;clip-rule:evenodd;}
	.st16{fill:#242021;}
	.st17{fill:#272324;}
	.st18{fill:#040303;}
	.st19{fill:#242122;}
	.st20{fill:#3B5999;}
	.st21{fill:#FDFDFD;}
	.st22{fill:#E52D27;}
	.st23{fill:#0180C7;}
	.st24{fill:#005CAA;}
	.st25{fill:#ED1D26;}
	.st26{fill:#EE4E2C;}
	.st27{fill:#FEFEFE;}
	.st28{fill:#AA1634;}
	.st29{fill:#268A52;}
	.st30{fill:#AF2070;}
	.st31{fill:#FDFCFD;}
	.st32{fill:#04BE04;}
	.st33{fill:#0290E6;}
	.st34{fill:#35BA8A;}
	.st35{fill:#EF7F18;}
	.st36{fill:#FBB040;}
</style>
<path class="st0" d="M412.5,443.58H31.58c-17.16,0-31.08-13.91-31.08-31.08V31.58C0.5,14.41,14.41,0.5,31.58,0.5H412.5
	c17.16,0,31.08,13.91,31.08,31.08V412.5C443.58,429.66,429.66,443.58,412.5,443.58z"/>
<g>
	<g>
		<path class="st34" d="M261.94,179.73c0.02-1.86-0.79-3.59-2.43-5.18c-1.44-1.4-3-2.17-4.68-2.32c-1.68-0.15-3.54,0.24-5.57,1.17
			l-1.12,0.5l-5.41-5.26c0.64-0.37,1.3-0.53,1.99-0.49c0.68,0.05,1.34,0.29,1.98,0.73l2.92-3c-1.35-1.31-2.94-1.96-4.78-1.94
			c-1.84,0.02-3.52,0.63-5.05,1.83l-2.16-2.1l-1.43,1.47l2.1,2.05c-1.43,1.69-2.16,3.47-2.19,5.34c-0.03,1.87,0.72,3.55,2.25,5.03
			c2.62,2.55,5.9,2.91,9.85,1.08l1.26-0.58l5.79,5.63c-1.67,1.06-3.37,0.94-5.1-0.39l-2.92,3c1.69,1.58,3.53,2.35,5.51,2.34
			c1.98-0.02,3.8-0.71,5.45-2.08l2.18,2.13l1.43-1.47l-2.16-2.1C261.16,183.38,261.92,181.59,261.94,179.73z M243.31,175.47
			c-0.77-0.04-1.46-0.36-2.06-0.94c-0.6-0.58-0.91-1.29-0.92-2.12c-0.01-0.83,0.27-1.63,0.86-2.41l4.94,4.81
			C245.02,175.29,244.08,175.51,243.31,175.47z M256.76,182.29l-5.27-5.13c1.14-0.45,2.12-0.64,2.94-0.59
			c0.82,0.05,1.56,0.41,2.24,1.06c0.64,0.62,0.96,1.36,0.96,2.21C257.63,180.69,257.34,181.51,256.76,182.29z"/>
		<path class="st35" d="M314.06,253.01h-36.9c-7.86,0-14.24,6.37-14.24,14.23v0c0,7.86,6.37,14.23,14.24,14.23h36.9
			c7.86,0,14.24-6.37,14.24-14.23v0C328.3,259.39,321.92,253.01,314.06,253.01z M276.08,272.41c-2.85,0-5.17-2.31-5.17-5.17
			c0-2.85,2.31-5.17,5.17-5.17c2.85,0,5.17,2.31,5.17,5.17C281.25,270.1,278.93,272.41,276.08,272.41z"/>
		<path class="st34" d="M171.9,190.06c4.08-4.12,9.5-9.76,13.34-13.59c24.89-24.89,49.77-49.78,74.68-74.64
			c0.8-0.8,0.65-1.16-0.05-1.86c-4.26-4.2-8.51-8.42-12.69-12.7c-0.86-0.88-1.28-0.77-2.09,0.04
			c-29.88,29.92-59.79,59.81-89.7,89.71c-4.1,4.1-9.22,8.94-13.36,13.04H171.9z"/>
		<path class="st34" d="M328.97,151.86c-0.88-0.75-1.65-1.62-2.47-2.44c-17.74-17.74-35.48-35.48-53.21-53.24
			c-0.68-0.68-1.06-1.06-1.98-0.14c-12.72,12.81-25.49,25.56-38.25,38.33c-14.9,14.9-29.79,29.79-44.7,44.68
			c-3.33,3.32-7.92,7.41-11.6,11.01h45.98c-0.2-0.54-0.58-1.16-0.77-1.59c-2.5-5.51-3.25-11.28-2.24-17.23
			c2.81-16.54,18.86-27.55,35.21-24.18c16.64,3.43,27.01,19.74,23.05,36.2c-0.51,2.11-1.63,4.61-2.56,6.8h17.44
			c0.44-0.39,0.83-0.77,1.07-1.02c4.78-4.82,9.59-9.61,14.39-14.41c6.9-6.9,13.78-13.81,20.71-20.67
			C329.91,153.08,329.83,152.59,328.97,151.86z"/>
	</g>
	<g>
		<path class="st36" d="M230.1,257.74c-1.65-0.97-3.52-1.46-5.63-1.46h-4.39v21.92h4.39c2.11,0,3.98-0.49,5.63-1.46
			c1.65-0.97,2.92-2.3,3.83-3.98c0.91-1.68,1.36-3.52,1.36-5.53c0-2.01-0.45-3.85-1.36-5.53
			C233.02,260.04,231.75,258.71,230.1,257.74z"/>
		<path class="st36" d="M316.13,285.7h-40.12c-10.05,0-18.19-8.15-18.19-18.19v-0.49c0-10.05,8.15-18.19,18.19-18.19h40.12
			c0.86,0,1.69,0.08,2.52,0.19c0.22-0.19,0.34-0.51,0.34-1.08c-0.05-12.93,0.05-25.85-0.07-38.78c-0.06-6.41-3.08-11.21-8.73-14.31
			c-2.83-1.55-5.89-1.73-9.01-1.75H281.9c-50.03,0.01-100.06,0.01-150.09,0.03c-0.22,0-0.39-0.01-0.56-0.03h-0.1
			c-0.84,0-1.53-0.68-1.53-1.53c0-0.84,0.68-1.53,1.53-1.53h4.63l5.87-5.35c2.37-2.38,4.76-4.75,7.14-7.12
			c-0.05-0.11-0.11-0.23-0.16-0.34c-0.39,0-0.77,0-1.16,0c-5.99,0-11.97-0.01-17.96,0c-8.61,0.02-15.08,6.46-15.08,15.09
			c-0.01,44.16-0.01,88.32,0,132.48c0,9.71,6.95,16.6,16.67,16.6c57.04,0,114.08,0,171.11,0c9.84,0,16.73-6.87,16.74-16.69
			c0.01-12.57-0.02-25.15,0.03-37.72c0-0.78-0.12-1.23-0.47-1.48C317.73,285.63,316.94,285.7,316.13,285.7z M141.1,272.93
			c0.94,1.71,2.25,3.06,3.95,4.05c1.7,0.99,3.63,1.48,5.8,1.48c2.01,0,3.88-0.51,5.6-1.53c1.73-1.02,2.94-2.39,3.63-4.1h7.75
			c-0.66,2.44-1.82,4.61-3.48,6.52c-1.66,1.91-3.67,3.39-6.02,4.44c-2.35,1.05-4.85,1.58-7.48,1.58c-3.46,0-6.59-0.8-9.41-2.39
			c-2.81-1.6-5.01-3.78-6.59-6.54c-1.58-2.77-2.37-5.83-2.37-9.18c0-3.36,0.79-6.42,2.37-9.18c1.58-2.77,3.78-4.95,6.59-6.54
			c2.81-1.6,5.95-2.4,9.41-2.4c2.63,0,5.13,0.53,7.48,1.58c2.35,1.05,4.36,2.54,6.02,4.44c1.66,1.91,2.82,4.08,3.48,6.52h-7.75
			c-0.69-1.71-1.9-3.08-3.63-4.1c-1.73-1.02-3.6-1.53-5.6-1.53c-2.17,0-4.11,0.49-5.8,1.48c-1.7,0.99-3.01,2.34-3.95,4.05
			c-0.94,1.71-1.41,3.6-1.41,5.68C139.69,269.32,140.16,271.22,141.1,272.93z M204.75,276.33c-1.63,2.77-3.83,4.96-6.59,6.59
			c-2.77,1.63-5.79,2.44-9.09,2.44c-3.29,0-6.32-0.81-9.09-2.44c-2.77-1.63-4.96-3.83-6.59-6.59c-1.63-2.77-2.44-5.79-2.44-9.09
			c0-3.29,0.82-6.32,2.44-9.09c1.63-2.77,3.83-4.96,6.59-6.59c2.77-1.63,5.79-2.44,9.09-2.44c3.29,0,6.32,0.81,9.09,2.44
			c2.77,1.63,4.96,3.83,6.59,6.59c1.63,2.77,2.44,5.79,2.44,9.09C207.19,270.54,206.38,273.57,204.75,276.33z M240.1,276.06
			c-1.6,2.68-3.78,4.81-6.54,6.37c-2.77,1.56-5.79,2.35-9.09,2.35h-11.56v-35.06h11.56c3.29,0,6.32,0.78,9.09,2.35
			c2.77,1.56,4.95,3.69,6.54,6.37c1.6,2.68,2.39,5.62,2.39,8.81C242.5,270.44,241.7,273.38,240.1,276.06z"/>
		<path class="st36" d="M194.57,257.54c-1.66-1-3.5-1.51-5.51-1.51c-2.01,0-3.84,0.5-5.51,1.51c-1.66,1-2.98,2.37-3.95,4.1
			c-0.97,1.73-1.46,3.6-1.46,5.6c0,2.01,0.49,3.88,1.46,5.6c0.97,1.73,2.29,3.09,3.95,4.1c1.66,1,3.5,1.51,5.51,1.51
			c2.01,0,3.84-0.5,5.51-1.51c1.66-1,2.98-2.37,3.95-4.1c0.97-1.73,1.46-3.6,1.46-5.6c0-2.01-0.49-3.88-1.46-5.6
			C197.55,259.92,196.24,258.55,194.57,257.54z"/>
	</g>
</g>
</svg>
