<?xml version="1.0" encoding="UTF-8"?>
<svg width="71px" height="36px" viewBox="0 0 71 36" version="1.1" xmlns="http://www.w3.org/2000/svg" xmlns:xlink="http://www.w3.org/1999/xlink">
    <!-- Generator: Sketch 53.1 (72631) - https://sketchapp.com -->
    <title>Shape</title>
    <desc>Created with Sketch.</desc>
    <g id="Mockups" stroke="none" stroke-width="1" fill="none" fill-rule="evenodd">
        <g id="01.1-Homepage-06" transform="translate(-465.000000, -7783.000000)" fill="#000000" fill-rule="nonzero">
            <g id="Offres-commerciales" transform="translate(334.000000, 7767.000000)">
                <g id="Shippinh" transform="translate(0.000000, 16.000000)">
                    <g id="Group" transform="translate(124.000000, 0.000000)">
                        <path d="M67.919,7.218 L56.324,7.218 L56.324,0.265 L19.086,0.265 L19.086,6.166 L7.968,6.166 C7.415,6.166 6.968,6.613 6.968,7.166 C6.968,7.719 7.415,8.166 7.968,8.166 L19.086,8.166 L19.086,20.416 L15.847,20.416 C15.294,20.416 14.847,20.863 14.847,21.416 C14.847,21.969 15.294,22.416 15.847,22.416 L19.086,22.416 L19.086,31.5 L23.762,31.5 C24.106,33.887 26.145,35.734 28.626,35.734 C31.108,35.734 33.147,33.886 33.491,31.5 L54.324,31.5 L56.324,31.5 L61.446,31.5 C61.79,33.887 63.829,35.734 66.311,35.734 C68.792,35.734 70.832,33.886 71.175,31.5 L77.656,31.5 L77.656,17.892 L67.919,7.218 Z M54.324,2.265 L54.324,7.218 L54.324,22.888 L21.086,22.888 L21.086,2.265 L54.324,2.265 Z M28.626,33.734 C27.008,33.734 25.691,32.418 25.691,30.8 C25.691,29.181 27.007,27.864 28.626,27.864 C30.245,27.864 31.562,29.18 31.562,30.8 C31.562,32.418 30.245,33.734 28.626,33.734 Z M33.365,29.5 C32.79,27.412 30.894,25.865 28.626,25.865 C26.358,25.865 24.463,27.412 23.888,29.5 L21.086,29.5 L21.086,24.889 L54.324,24.889 L54.324,29.5 L33.365,29.5 Z M66.312,33.734 C64.693,33.734 63.376,32.418 63.376,30.8 C63.376,29.181 64.692,27.864 66.312,27.864 C67.93,27.864 69.247,29.18 69.247,30.8 C69.246,32.418 67.93,33.734 66.312,33.734 Z M75.657,29.5 L71.05,29.5 C70.475,27.412 68.579,25.865 66.312,25.865 C64.043,25.865 62.148,27.412 61.573,29.5 L56.325,29.5 L56.325,9.218 L67.037,9.218 L75.658,18.667 L75.658,29.5 L75.657,29.5 Z" id="Shape"></path>
                    </g>
                </g>
            </g>
        </g>
    </g>
</svg>